<?xml version="1.0" encoding="utf-8"?><svg xmlns="http://www.w3.org/2000/svg" xmlns:xlink="http://www.w3.org/1999/xlink"><symbol viewBox="0 0 32 32" id="bubble" xmlns="http://www.w3.org/2000/svg"><path d="M16 2c8.837 0 16 5.82 16 13s-7.163 13-16 13a19.66 19.66 0 0 1-2.495-.158C10.068 31.279 5.966 31.895 2 31.986v-.841C4.142 30.096 6 28.184 6 26c0-.305-.024-.604-.068-.897C2.313 22.72 0 19.079 0 15 0 7.82 7.163 2 16 2z"/></symbol><symbol viewBox="0 0 40 31" id="car" xmlns="http://www.w3.org/2000/svg"><path d="M37.87 27.68h-3.75a3.95 3.95 0 0 1-7.82 0H13.35a3.95 3.95 0 0 1-7.82 0h-3.4A2.13 2.13 0 0 1 0 25.56V5.27C0 4.1.96 3.15 2.14 3.15h6.29v-.12A3.05 3.05 0 0 1 11.49 0a3.05 3.05 0 0 1 3.06 3.03v.12h7.55c.33 0 .6.27.6.6v3.08h6.74c.2 0 .38.09.49.25l6.63 9.29h.84a2.6 2.6 0 0 1 2.6 2.58v6.61c0 1.17-.96 2.12-2.13 2.12zm0-1.21c.5 0 .92-.41.92-.91v-6.61c0-.76-.62-1.38-1.39-1.38H22.1a.6.6 0 0 1-.6-.6V4.35H2.13c-.51 0-.93.42-.93.92v20.29c0 .5.42.91.93.91h3.4a3.95 3.95 0 0 1 7.8 0H26.3a3.95 3.95 0 0 1 7.82 0zM22.7 16.37h12.38l-5.96-8.34H22.7zM9.44 24.36a2.73 2.73 0 0 0-2.74 2.72c0 1.5 1.23 2.72 2.74 2.72a2.73 2.73 0 0 0 2.74-2.72c0-1.5-1.23-2.72-2.74-2.72zm20.77 0a2.73 2.73 0 0 0-2.74 2.72c0 1.5 1.23 2.72 2.74 2.72a2.73 2.73 0 0 0 2.74-2.72c0-1.5-1.23-2.72-2.74-2.72zm-13.8-11.38h-4.14v4.1a.6.6 0 0 1-.6.6.6.6 0 0 1-.61-.6v-4.1H6.93a.6.6 0 0 1-.6-.6c0-.33.26-.6.6-.6h4.13v-4.1a.6.6 0 0 1 1.21 0v4.1h4.13c.34 0 .6.27.6.6a.6.6 0 0 1-.6.6zM9.63 3.09l3.7-.06c0-1.01-.83-1.83-1.85-1.83s-1.85.82-1.85 1.83z"/></symbol><symbol viewBox="0 0 32 32" id="forward" xmlns="http://www.w3.org/2000/svg"><path d="M8.192 0C4.638 6.439 4.039 16.259 18 15.932V8l12 12-12 12v-7.762C1.282 24.674-.58 9.481 8.192 0z"/></symbol><symbol viewBox="0 0 42 38" id="heart" xmlns="http://www.w3.org/2000/svg"><path d="M29.4 0c-3.13 0-6.09 1.13-8.4 3.19A12.58 12.58 0 0 0 12.6 0C5.64 0 0 5.59 0 12.47 0 16.82 2.38 22 6.7 27.06c3.99 4.65 9.1 8.62 14.01 10.88a.7.7 0 0 0 .58 0c4.92-2.26 10.02-6.23 14-10.88C39.62 22 42 16.82 42 12.47 42 5.59 36.35 0 29.4 0zM12.6 1.35c2.98 0 5.8 1.15 7.92 3.24.26.26.7.26.96 0a11.22 11.22 0 0 1 7.93-3.24c6.2 0 11.23 4.98 11.23 11.12 0 1.49-.31 3.1-.91 4.78h-8.57c-.32 0-.6.22-.66.52l-.81 3.6-2.22-9.35a.68.68 0 1 0-1.32-.01l-1.33 5.24h-8.17c-.32 0-.6.22-.67.52l-.8 3.6-2.23-9.35a.67.67 0 0 0-.65-.52.68.68 0 0 0-.67.51l-1.32 5.24H2.27a14.3 14.3 0 0 1-.9-4.78c0-6.14 5.03-11.12 11.22-11.12zm21.65 24.83A42.32 42.32 0 0 1 21 36.58a42.32 42.32 0 0 1-13.25-10.4 31.28 31.28 0 0 1-4.94-7.59h8.03c.31 0 .58-.21.66-.51l.77-3.05 2.26 9.51c.07.31.35.52.66.52.33 0 .6-.22.67-.53l1.33-5.94h8.16c.32 0 .59-.21.66-.51l.77-3.05 2.27 9.51c.07.31.34.52.66.52s.6-.22.66-.53l1.33-5.94h7.49a31.28 31.28 0 0 1-4.94 7.59z"/></symbol><symbol viewBox="0 0 32 32" id="home" xmlns="http://www.w3.org/2000/svg"><path d="M32 18.451L16 6.031 0 18.451v-5.064L16 .967l16 12.42zM28 18v12h-8v-8h-8v8H4V18l12-9z"/></symbol><symbol viewBox="0 0 32 32" id="music" xmlns="http://www.w3.org/2000/svg"><path d="M30 0h2v23c0 2.761-3.134 5-7 5s-7-2.239-7-5 3.134-5 7-5c1.959 0 3.729.575 5 1.501V8l-16 3.556V27c0 2.761-3.134 5-7 5s-7-2.239-7-5 3.134-5 7-5c1.959 0 3.729.575 5 1.501V4l18-4z"/></symbol><symbol viewBox="0 0 32 32" id="play" xmlns="http://www.w3.org/2000/svg"><path d="M30.662 5.003C26.174 4.358 21.214 4 16 4S5.826 4.358 1.338 5.003C.478 8.369 0 12.089 0 16s.477 7.63 1.338 10.997C5.827 27.642 10.786 28 16 28s10.174-.358 14.662-1.003C31.522 23.631 32 19.911 32 16s-.477-7.63-1.338-10.997zM12 22V10l10 6-10 6z"/></symbol><symbol viewBox="0 0 32 32" id="reply" xmlns="http://www.w3.org/2000/svg"><path d="M14 24.238V32L2 20 14 8v7.932C27.961 16.259 27.362 6.439 23.808 0 32.58 9.482 30.717 24.674 14 24.238z"/></symbol><symbol viewBox="0 0 33 41" id="test" xmlns="http://www.w3.org/2000/svg"><path d="M27.61 21.18a5.42 5.42 0 0 0-5.34 4.78h-7.45v-4.18c.7-.18 1.3-.63 1.68-1.28l8.71-14.93c.5-.87.51-1.92.02-2.8a2.73 2.73 0 0 0-2.39-1.41h-1.53A2.35 2.35 0 0 0 19.19 0c-1.07 0-3.7.84-3.7 2.39 0 1.55 2.63 2.39 3.7 2.39 1.19 0 2.16-.89 2.33-2.05h1.32c.51 0 .97.27 1.22.72.25.45.24.98-.01 1.42L15.34 19.8a1.38 1.38 0 1 1-2.4 0L3.99 4.87a1.41 1.41 0 0 1-.01-1.42c.25-.45.71-.72 1.21-.72h1.58a2.36 2.36 0 0 0 2.32 2.05c1.08 0 3.71-.84 3.71-2.39C12.8.84 10.17 0 9.09 0c-.94 0-1.74.56-2.12 1.36H5.19a2.8 2.8 0 0 0-2.35 4.22l8.94 14.92c.38.65.99 1.1 1.69 1.28v4.18H7.41A7.48 7.48 0 0 0 0 33.48 7.47 7.47 0 0 0 7.41 41a7.48 7.48 0 0 0 7.41-7.52v-6.15h7.45a5.42 5.42 0 0 0 5.34 4.78A5.43 5.43 0 0 0 33 26.65a5.44 5.44 0 0 0-5.39-5.47zM19.19 3.41c-.83 0-2.26-.67-2.35-1.02.09-.35 1.52-1.03 2.35-1.03.56 0 1.01.47 1.01 1.03s-.45 1.02-1.01 1.02zM9.09 1.36c.83 0 2.26.68 2.36 1.03-.1.35-1.53 1.02-2.36 1.02-.56 0-1.01-.46-1.01-1.02s.45-1.03 1.01-1.03zm4.38 32.12a6.11 6.11 0 0 1-6.06 6.15 6.11 6.11 0 0 1-6.06-6.15 6.11 6.11 0 0 1 6.06-6.15h6.06zm14.14-2.73a4.07 4.07 0 0 1-4.04-4.1c0-2.26 1.81-4.1 4.04-4.1a4.07 4.07 0 0 1 4.04 4.1c0 2.26-1.81 4.1-4.04 4.1zm0-6.84a2.72 2.72 0 0 0-2.69 2.74 2.71 2.71 0 0 0 2.69 2.73c1.49 0 2.7-1.22 2.7-2.73a2.72 2.72 0 0 0-2.7-2.74zm0 4.11c-.74 0-1.34-.62-1.34-1.37 0-.76.6-1.37 1.34-1.37.75 0 1.35.61 1.35 1.37 0 .75-.6 1.37-1.35 1.37z"/></symbol></svg>