<svg xmlns="http://www.w3.org/2000/svg" width="40" height="31" viewBox="0 0 40 31"><path fill="#3b82ea" d="M37.87 27.68h-3.75a3.95 3.95 0 0 1-7.82 0H13.35a3.95 3.95 0 0 1-7.82 0h-3.4A2.13 2.13 0 0 1 0 25.56V5.27C0 4.1.96 3.15 2.14 3.15h6.29v-.12A3.05 3.05 0 0 1 11.49 0a3.05 3.05 0 0 1 3.06 3.03v.12h7.55c.33 0 .6.27.6.6v3.08h6.74c.2 0 .38.09.49.25l6.63 9.29h.84a2.6 2.6 0 0 1 2.6 2.58v6.61c0 1.17-.96 2.12-2.13 2.12zm0-1.21c.5 0 .92-.41.92-.91v-6.61c0-.76-.62-1.38-1.39-1.38H22.1a.6.6 0 0 1-.6-.6V4.35H2.13c-.51 0-.93.42-.93.92v20.29c0 .5.42.91.93.91h3.4a3.95 3.95 0 0 1 7.8 0H26.3a3.95 3.95 0 0 1 7.82 0zM22.7 16.37h12.38l-5.96-8.34H22.7zM9.44 24.36a2.73 2.73 0 0 0-2.74 2.72c0 1.5 1.23 2.72 2.74 2.72a2.73 2.73 0 0 0 2.74-2.72c0-1.5-1.23-2.72-2.74-2.72zm20.77 0a2.73 2.73 0 0 0-2.74 2.72c0 1.5 1.23 2.72 2.74 2.72a2.73 2.73 0 0 0 2.74-2.72c0-1.5-1.23-2.72-2.74-2.72zm-13.8-11.38h-4.14v4.1a.6.6 0 0 1-.6.6.6.6 0 0 1-.61-.6v-4.1H6.93a.6.6 0 0 1-.6-.6c0-.33.26-.6.6-.6h4.13v-4.1a.6.6 0 0 1 1.21 0v4.1h4.13c.34 0 .6.27.6.6a.6.6 0 0 1-.6.6zM9.63 3.09l3.7-.06c0-1.01-.83-1.83-1.85-1.83s-1.85.82-1.85 1.83z"/></svg>