<svg xmlns="http://www.w3.org/2000/svg" width="42" height="38" viewBox="0 0 42 38"><path fill="#3b82ea" d="M29.4 0c-3.13 0-6.09 1.13-8.4 3.19A12.58 12.58 0 0 0 12.6 0C5.64 0 0 5.59 0 12.47 0 16.82 2.38 22 6.7 27.06c3.99 4.65 9.1 8.62 14.01 10.88a.7.7 0 0 0 .58 0c4.92-2.26 10.02-6.23 14-10.88C39.62 22 42 16.82 42 12.47 42 5.59 36.35 0 29.4 0zM12.6 1.35c2.98 0 5.8 1.15 7.92 3.24.26.26.7.26.96 0a11.22 11.22 0 0 1 7.93-3.24c6.2 0 11.23 4.98 11.23 11.12 0 1.49-.31 3.1-.91 4.78h-8.57c-.32 0-.6.22-.66.52l-.81 3.6-2.22-9.35a.68.68 0 1 0-1.32-.01l-1.33 5.24h-8.17c-.32 0-.6.22-.67.52l-.8 3.6-2.23-9.35a.67.67 0 0 0-.65-.52.68.68 0 0 0-.67.51l-1.32 5.24H2.27a14.3 14.3 0 0 1-.9-4.78c0-6.14 5.03-11.12 11.22-11.12zm21.65 24.83A42.32 42.32 0 0 1 21 36.58a42.32 42.32 0 0 1-13.25-10.4 31.28 31.28 0 0 1-4.94-7.59h8.03c.31 0 .58-.21.66-.51l.77-3.05 2.26 9.51c.07.31.35.52.66.52.33 0 .6-.22.67-.53l1.33-5.94h8.16c.32 0 .59-.21.66-.51l.77-3.05 2.27 9.51c.07.31.34.52.66.52s.6-.22.66-.53l1.33-5.94h7.49a31.28 31.28 0 0 1-4.94 7.59z"/></svg>